<?xml version="1.0" encoding="UTF-8"?>
<!-- Created with Inkscape (http://www.inkscape.org/) -->
<svg width="30.463mm" height="22.143mm" version="1.1" viewBox="0 0 30.463 22.143" xmlns="http://www.w3.org/2000/svg">
 <g transform="translate(-157.18 -146.24)">
  <g id="Regular-S" transform="matrix(.26458 0 0 .26458 154.6 167.26)">
   <path style="fill:#28cd41" class="monochrome-0 SFSymbolsPreview000000" d="m70.117 0.87891c2.7344 0 4.9805-1.2695 10.156-1.2695 5.127 0 6.4454 1.2695 10.205 1.2695 5.6641 0 8.5938-2.3437 8.5938-6.543 0-6.9336-7.1289-11.377-18.848-11.377-5.7617 0-8.3008 0.4883-11.523 1.3183l-4.1992-9.5703c-4.004-8.8867-10.498-14.892-19.922-14.892h-4.541c-1.5137 0-2.5879-0.6836-2.5879-2.2461 0-2.4414 3.2226-3.0762 6.7871-3.0762 11.328 0 19.678 6.25 24.805 18.75l2.5879 6.3476c2.5879-0.5371 5.4199-0.7812 8.2031-0.7812 2.2949 0 4.4922 0.1465 6.6894 0.4394 2.295-1.7089 4.9805-3.4179 8.9844-4.7363 4.2969 2.6856 8.8872 4.3945 13.867 4.3945 10.742 0 15.527-2.2949 15.527-12.598 0-11.816-8.3-20.752-20.312-20.996l-10.4-13.574c-5.8594-7.6172-12.744-11.182-19.482-11.182-5.6152 0-14.16 3.2715-14.16 7.8614 0 3.0761 6.3965 7.5683 11.133 10.547l21.973 13.672c-1.3183 1.1719-2.7343 2.002-4.6386 2.002-3.0762 0-6.3965-2.002-11.035-4.6875-11.865-6.836-20.996-13.184-33.301-13.184-12.793 0-22.51 7.373-27.686 21.826-4.1016 0-7.2266 2.7343-7.2266 6.6894 0 4.4434 3.5645 7.2754 8.3496 7.2754 5.6641 7.8613 14.941 10.938 25.684 10.938 0.586 0 1.1719-0.0488 1.7578-0.0488l15.625 13.281c4.0528 3.6621 6.0059 4.1504 8.9356 4.1504zm-27.393 3.3691c7.5195 0 11.963-1.5137 15.527-4.0527l-11.816-10.059c-0.5371 0.04883-1.1718 0.09766-1.9531 0.09766-2.0508 0-4.5898-0.53708-8.1543-0.53708-4.2969 0-7.1289 2.3437-7.1289 5.9082 0 5.2246 5.4199 8.6426 13.525 8.6426zm65.918-39.6c-1.807 0-3.174-1.4648-3.174-3.2226 0-1.8067 1.416-3.3692 3.222-3.3692 1.856 0 3.223 1.4161 3.223 3.1739 0 1.8066-1.416 3.4179-3.271 3.4179z"/>
  </g>
 </g>
</svg>
